<?xml version="1.0" encoding="utf-8"?>
<!-- Generator: Adobe Illustrator 16.0.0, SVG Export Plug-In . SVG Version: 6.00 Build 0)  -->
<!DOCTYPE svg PUBLIC "-//W3C//DTD SVG 1.0//EN" "http://www.w3.org/TR/2001/REC-SVG-20010904/DTD/svg10.dtd">
<svg version="1.0" id="Layer_1" xmlns="http://www.w3.org/2000/svg" xmlns:xlink="http://www.w3.org/1999/xlink" x="0px" y="0px"
	 width="100px" height="100px" viewBox="0 0 100 100" enable-background="new 0 0 100 100" xml:space="preserve">
<path d="M10,10v20h15V10H10z M17.5,25c-1.38,0-2.5-1.12-2.5-2.5s1.12-2.5,2.5-2.5s2.5,1.12,2.5,2.5S18.88,25,17.5,25z" fill="#0c5dad"/>
<path d="M10,36.667V90h15V36.667H10z M17.5,46.667c-1.38,0-2.5-1.12-2.5-2.5c0-1.38,1.12-2.5,2.5-2.5s2.5,1.12,2.5,2.5
	C20,45.547,18.88,46.667,17.5,46.667z" fill="#E29E21"/>
<path d="M53.333,10v20h15V10H53.333z M60.833,25c-1.38,0-2.5-1.12-2.5-2.5s1.12-2.5,2.5-2.5c1.381,0,2.5,1.12,2.5,2.5
	S62.214,25,60.833,25z" fill="#0c5dad"/>
<path d="M53.333,36.667V90h15V36.667H53.333z M60.833,46.667c-1.38,0-2.5-1.12-2.5-2.5c0-1.38,1.12-2.5,2.5-2.5
	c1.381,0,2.5,1.12,2.5,2.5C63.333,45.547,62.214,46.667,60.833,46.667z" fill="#0c5dad"/>
<path d="M31.667,10v53.333h15V10H31.667z M39.167,58.333c-1.38,0-2.5-1.119-2.5-2.5c0-1.38,1.12-2.5,2.5-2.5
	c1.38,0,2.5,1.12,2.5,2.5C41.667,57.214,40.547,58.333,39.167,58.333z" fill="#E29E21"/>
<path d="M31.667,70v20h15V70H31.667z M39.167,80c-1.38,0-2.5-1.12-2.5-2.5s1.12-2.5,2.5-2.5c1.38,0,2.5,1.12,2.5,2.5
	S40.547,80,39.167,80z" fill="#E29E21"/>
<path d="M75,10v53.333h15V10H75z M82.5,58.333c-1.38,0-2.5-1.119-2.5-2.5c0-1.38,1.12-2.5,2.5-2.5s2.5,1.12,2.5,2.5
	C85,57.214,83.88,58.333,82.5,58.333z" fill="#E29E21"/>
<path d="M75,70v20h15V70H75z M82.5,80c-1.38,0-2.5-1.12-2.5-2.5s1.12-2.5,2.5-2.5s2.5,1.12,2.5,2.5S83.88,80,82.5,80z" fill="#0c5dad"/>
</svg>
